<svg width="20" height="22" viewBox="0 0 20 22" fill="none" xmlns="http://www.w3.org/2000/svg">
<path d="M10 5.3125C9.01109 5.3125 8.04439 5.62407 7.22215 6.20782C6.3999 6.79156 5.75904 7.62126 5.3806 8.59199C5.00216 9.56273 4.90315 10.6309 5.09607 11.6614C5.289 12.6919 5.7652 13.6385 6.46447 14.3815C7.16373 15.1245 8.05464 15.6304 9.02455 15.8354C9.99445 16.0404 10.9998 15.9352 11.9134 15.5331C12.827 15.131 13.6079 14.4501 14.1573 13.5765C14.7068 12.7028 15 11.6757 15 10.625C15 9.21604 14.4732 7.86478 13.5355 6.8685C12.5979 5.87221 11.3261 5.3125 10 5.3125V5.3125ZM10 13.8125C9.40666 13.8125 8.82664 13.6256 8.33329 13.2753C7.83994 12.9251 7.45542 12.4272 7.22836 11.8448C7.0013 11.2624 6.94189 10.6215 7.05764 10.0031C7.1734 9.38484 7.45912 8.81688 7.87868 8.3711C8.29824 7.92532 8.83279 7.62174 9.41473 7.49875C9.99667 7.37576 10.5999 7.43888 11.1481 7.68013C11.6962 7.92139 12.1648 8.32994 12.4944 8.85412C12.8241 9.3783 13 9.99457 13 10.625C13 11.4704 12.6839 12.2811 12.1213 12.8789C11.5587 13.4767 10.7956 13.8125 10 13.8125ZM15 4.25C14.8022 4.25 14.6089 4.31231 14.4444 4.42906C14.28 4.54581 14.1518 4.71175 14.0761 4.9059C14.0004 5.10005 13.9806 5.31368 14.0192 5.51978C14.0578 5.72589 14.153 5.91521 14.2929 6.0638C14.4327 6.21239 14.6109 6.31359 14.8049 6.35458C14.9989 6.39558 15.2 6.37454 15.3827 6.29412C15.5654 6.2137 15.7216 6.07752 15.8315 5.90279C15.9414 5.72807 16 5.52264 16 5.3125C16 5.03071 15.8946 4.76046 15.7071 4.5612C15.5196 4.36194 15.2652 4.25 15 4.25ZM19.94 6.63C19.9234 5.72201 19.7611 4.82369 19.46 3.97375C19.1808 3.20032 18.7516 2.49793 18.2003 1.91218C17.649 1.32643 16.9879 0.870417 16.26 0.57375C15.4601 0.25383 14.6146 0.0813531 13.76 0.0637499C12.79 -5.93718e-08 12.47 0 10 0C7.53 0 7.21 -5.93718e-08 6.24 0.0637499C5.38542 0.0813531 4.53995 0.25383 3.74 0.57375C3.01207 0.870417 2.35099 1.32643 1.7997 1.91218C1.2484 2.49793 0.819216 3.20032 0.54 3.97375C0.238899 4.82369 0.0765676 5.72201 0.0599999 6.63C-5.58794e-08 7.67125 0 8.01125 0 10.625C0 13.2388 -5.58794e-08 13.5788 0.0599999 14.62C0.0765676 15.528 0.238899 16.4263 0.54 17.2763C0.819216 18.0497 1.2484 18.7521 1.7997 19.3378C2.35099 19.9236 3.01207 20.3796 3.74 20.6762C4.53995 20.9962 5.38542 21.1686 6.24 21.1863C7.24 21.1863 7.53 21.25 10 21.25C12.47 21.25 12.79 21.25 13.76 21.1863C14.6146 21.1686 15.4601 20.9962 16.26 20.6762C16.9879 20.3796 17.649 19.9236 18.2003 19.3378C18.7516 18.7521 19.1808 18.0497 19.46 17.2763C19.7611 16.4263 19.9234 15.528 19.94 14.62C19.94 13.5575 20 13.2388 20 10.625C20 8.01125 20 7.67125 19.94 6.63ZM17.94 14.5244C17.9225 15.1987 17.8043 15.8657 17.59 16.5006C17.4128 17.0025 17.1327 17.4562 16.77 17.8288C16.4214 18.2143 15.9936 18.5088 15.52 18.6894C14.921 18.9264 14.289 19.0557 13.65 19.0719C12.71 19.0719 12.42 19.125 9.99 19.125C7.56 19.125 7.28 19.125 6.34 19.125C5.70202 19.1075 5.07075 18.982 4.47 18.7531C3.99766 18.5648 3.57067 18.2672 3.22 17.8819C2.85715 17.5115 2.57992 17.0569 2.41 16.5537C2.1878 15.9207 2.06615 15.2529 2.05 14.5775C2.05 13.515 2.05 13.2494 2.05 10.6781C2.05 8.10688 2.05 7.79875 2.05 6.77875C2.06724 6.10003 2.18884 5.42888 2.41 4.79188C2.58256 4.29317 2.85953 3.84266 3.22 3.47437C3.56858 3.08885 3.99641 2.79429 4.47 2.61375C5.06899 2.3767 5.70099 2.24743 6.34 2.23125C7.28 2.125 7.57 2.125 10 2.125C12.43 2.125 12.72 2.125 13.66 2.125C14.3021 2.14235 14.9373 2.27157 15.54 2.5075C16.0094 2.69084 16.4334 2.98513 16.78 3.36813C17.1428 3.73849 17.4201 4.19306 17.59 4.69625C17.8348 5.34285 17.9735 6.02924 18 6.72562C18 7.78812 18.05 8.05375 18.05 10.625C18.05 13.1963 18 13.5044 18 14.5244H17.94Z" fill="#343232"/>
</svg>
