<svg width="20" height="22" viewBox="0 0 20 22" fill="none" xmlns="http://www.w3.org/2000/svg">
<path d="M10 3.66072e-08C8.02219 3.66072e-08 6.08879 0.623145 4.4443 1.79064C2.79981 2.95813 1.51809 4.61752 0.761209 6.55899C0.00433284 8.50045 -0.193701 10.6368 0.192152 12.6978C0.578004 14.7589 1.53041 16.6521 2.92894 18.138C4.32746 19.6239 6.10929 20.6359 8.0491 21.0458C9.98891 21.4558 11.9996 21.2454 13.8268 20.4412C15.6541 19.637 17.2159 18.2752 18.3147 16.5279C19.4135 14.7807 20 12.7264 20 10.625C20.0001 9.22967 19.7415 7.84799 19.239 6.55885C18.7365 5.26971 17.9999 4.09838 17.0713 3.11173C16.1427 2.12509 15.0403 1.34246 13.827 0.808544C12.6137 0.274629 11.3133 -0.00011579 10 3.66072e-08V3.66072e-08ZM13.1795 16.0995C13.1421 16.1987 13.0851 16.2882 13.0125 16.362C12.9398 16.4359 12.8532 16.4924 12.7583 16.5278C12.6634 16.5632 12.5625 16.5766 12.4623 16.5671C12.3621 16.5577 12.265 16.5256 12.1775 16.473L9.46284 14.2318L7.72052 15.9396C7.6801 15.9714 7.6328 15.9918 7.583 15.999C7.5332 16.0062 7.48248 16 7.43552 15.981L7.76952 12.8058L7.78021 12.8148L7.78704 12.7521C7.78704 12.7521 12.672 8.0266 12.871 7.82527C13.0725 7.62446 13.006 7.5809 13.006 7.5809C13.0175 7.33596 12.6445 7.5809 12.6445 7.5809L6.172 12.0052L3.47651 11.0298C3.47651 11.0298 3.06251 10.872 3.02351 10.5251C2.98251 10.1809 3.49 9.99388 3.49 9.99388L14.207 5.47027C14.207 5.47027 15.088 5.05322 15.088 5.74388L13.1795 16.0995Z" fill="#343232"/>
</svg>
